<?xml version="1.0" encoding="utf-8"?>
<!-- Generator: Adobe Illustrator 26.0.2, SVG Export Plug-In . SVG Version: 6.00 Build 0)  -->
<svg version="1.1" id="Layer_1" xmlns="http://www.w3.org/2000/svg" xmlns:xlink="http://www.w3.org/1999/xlink" x="0px" y="0px"
	 viewBox="0 0 394.2 92.7" style="enable-background:new 0 0 394.2 92.7;" xml:space="preserve">
<style type="text/css">
	.st0{fill:none;}
	.st1{fill:#FFFFFF;}
</style>
<g>
	<path class="st0" d="M87,65.5c-2.7,0.6-5.5,1.7-7.8,3.2c-3.9,2.5-4.3,7.8-0.9,10.8c1.2,1.1,2.8,2,4.4,2.5
		c5.9,1.8,11.5,0.6,16.9-2.3c0.3-0.2,0.7-0.7,0.7-1c0-4.9,0-9.8,0-15.2C95.6,64.1,91.2,64.5,87,65.5z"/>
	<path class="st0" d="M35.6,41.4c-4.1-1.1-8.2-0.9-12.2,0.6c-5.3,2.1-9.4,8.3-8.8,13.7c0.5,0,1.1,0,1.6,0c8.2,0,16.4,0,24.7,0
		c1.4,0,2.7,0.1,4.1,0c0.4,0,1-0.6,1-0.9C45.4,48.8,42.6,43.3,35.6,41.4z"/>
	<path class="st1" d="M45.2,33.2c-6.2-3.2-12.7-3.9-19.5-3c-8.9,1.1-16.1,5.2-20.9,13c-5.2,8.6-5.9,17.9-3.3,27.5
		c2.8,10.1,9.1,17,19.2,20.2c7.4,2.4,14.9,2.2,22.4,0.5c3.9-0.9,7.7-2.1,11-4.4c2.8-2,3.4-5.1,1.7-7.8c-1.6-2.6-4.2-3-7.4-1.5
		c-1.9,0.9-3.8,1.9-5.7,2.6C36.3,82.4,30,83,23.8,79.8c-5.9-3-8.8-8.2-9.5-14.9c0.9,0,1.5,0,2.1,0c11.9,0,23.9,0,35.8,0
		c3.8,0,6.6-2.5,6.8-6.3c0.1-2,0-4.1-0.3-6.1C57.4,43.8,53,37.3,45.2,33.2z M44.9,55.7c-1.3,0.1-2.7,0-4.1,0c-8.2,0-16.4,0-24.7,0
		c-0.5,0-1.1,0-1.6,0c-0.5-5.4,3.5-11.7,8.8-13.7c4-1.6,8.1-1.8,12.2-0.6c6.9,1.9,9.8,7.4,10.2,13.5C45.9,55.1,45.3,55.7,44.9,55.7z
		"/>
	<path class="st1" d="M330.9,55.7c0-2.8-0.2-5.6-0.7-8.4c-1.3-7.3-5.2-12.8-12.3-15.5c-2.5-1-5.3-1.6-8-1.9
		c-6.7-0.7-13.1,0.3-18.6,4.5c-1.5,1.2-2.8,2.6-4.4,4.1c0-0.8,0-1.4,0-2c-0.1-2.4-1-4.5-3.2-5.8c-2.3-1.4-4.7-1.4-7-0.2
		c-2.4,1.3-3.4,3.4-3.4,6.1c0,12.8,0,25.6,0,38.4c0,3.7,0,7.3,0,11c0.1,3.4,2.6,6.1,5.8,6.4c4.4,0.5,7.7-2.6,7.7-7.2
		c0-7.4,0-14.8,0-22.3c0-2.2,0.2-4.5,0.6-6.7c1.6-8.2,6.3-14.2,14.7-14.9c6.4-0.5,11.9,1.5,14,8.2c0.6,1.9,1,3.9,1,5.9
		c0.1,10,0.1,20,0.1,29.9c0,3.8,2.6,6.6,6.1,7c3.8,0.4,7.7-2.4,7.6-7.2C330.8,75.5,331,65.6,330.9,55.7z"/>
	<path class="st1" d="M113.2,47.3c-1-8.4-6.4-14.5-14.7-16.4c-8.3-2-16.5-0.9-24.5,2c-2.5,0.9-5,1.9-6.8,4c-2.5,2.8-1.1,7,2.5,8
		c2.1,0.6,3.9-0.3,5.7-1.1c3.6-1.6,7.3-3,11.3-3.3c4.3-0.3,8.3,0.1,11.1,3.8c2.2,3,2.3,6.5,2.2,10.2c-1.9,0.2-3.7,0.3-5.5,0.5
		c-5.7,0.6-11.4,1.3-16.9,3c-4.2,1.3-8.2,3.2-11.2,6.6c-5.4,6.2-4.7,18.1,3.3,23.9c5.7,4.1,12.2,4.6,18.9,4.1
		c4.1-0.4,8-1.5,11.8-3.4c0.3,0.3,0.5,0.6,0.7,0.9c1.9,2.5,5.4,3.5,8.2,2.2c2.9-1.3,4.2-3.5,4.2-6.7c0-10.9,0-21.8,0-32.6
		C113.6,51,113.4,49.1,113.2,47.3z M100.2,78.7c0,0.3-0.4,0.8-0.7,1c-5.3,2.9-11,4.1-16.9,2.3c-1.6-0.5-3.2-1.3-4.4-2.5
		c-3.4-3.1-3-8.4,0.9-10.8c2.4-1.5,5.1-2.5,7.8-3.2c4.3-0.9,8.6-1.3,13.2-2C100.2,68.8,100.2,73.8,100.2,78.7z"/>
	<path class="st1" d="M161.8,61.8c-3.5-2.7-7.6-4.2-11.6-5.8c-3.3-1.3-6.6-2.5-9.8-4.1c-2.4-1.2-3.7-3.4-3.2-6.2
		c0.5-2.8,2.7-3.8,5.1-4.3c4-0.9,7.8-0.3,11.7,0.7c2.3,0.6,4.8,1.2,7.2,1.3c3.2,0.2,5.6-3.3,4.8-6.4c-0.6-2.4-2.4-3.8-4.5-4.7
		c-3.3-1.5-6.8-2-10.3-2.3c-5.6-0.4-11.2-0.4-16.6,1.4c-7,2.2-11.3,7.5-11.7,14.2c-0.5,7.6,2.7,13.3,9.5,16.5c2.4,1.2,5,1.9,7.5,3
		c3.5,1.5,7,2.9,10.4,4.6c2.6,1.4,3.4,4,2.9,6.8c-0.5,2.7-2.4,4.1-4.9,4.7c-5.2,1.3-10.3,0.8-15.1-1.8c-1.4-0.7-2.7-1.5-4.2-1.9
		c-4.4-1.4-8.2,1.9-7.3,6.3c0.5,2.5,2.3,4.1,4.4,5.2c5.4,2.8,11.4,3.3,18.2,3.5c1.2-0.1,3.3-0.1,5.3-0.4c5.2-0.8,9.8-2.6,13.5-6.5
		C169.1,79.5,169.6,67.7,161.8,61.8z"/>
	<path class="st1" d="M214.7,77c-1.5-0.1-3.2,0.6-4.6,1.4c-2.1,1.1-4.1,2.6-6.5,2.8c-4.7,0.4-8.3-1.3-9.2-6.1
		c-0.3-1.3-0.5-2.6-0.5-3.9c0-9.3,0-18.6,0-27.8c0-0.5,0-1.1,0-1.8c0.7,0,1.3,0,1.8,0c4.4,0,8.7,0,13.1,0c3.1,0,5.3-2.2,5.3-5.3
		c0-3.2-2.2-5.3-5.4-5.4c-4.4,0-8.7,0-13.1,0c-0.5,0-1.1,0-1.5,0c-0.1-0.3-0.2-0.4-0.2-0.5c0-3,0-6-0.1-9c-0.1-3.7-3-6.5-6.8-6.5
		c-3.8,0-6.7,2.8-6.8,6.6c0,2.7,0,5.3,0,8c0,0.5,0,0.9-0.1,1.5c-1.7,0-3.3,0-4.8,0c-3,0-5.3,2.3-5.3,5.4c0,2.9,2.2,5.2,5.2,5.3
		c1.6,0,3.2,0,5,0c0,0.8,0,1.3,0,1.9c0,9.2,0,18.5,0,27.7c0,2.3,0.2,4.7,0.6,7c1.3,6.5,4.8,11.4,11.4,13.3c7.6,2.2,15,1.3,21.9-2.7
		c1.6-0.9,3.2-2.4,4.2-3.9C220.6,81.6,218.6,77.3,214.7,77z"/>
	<path class="st1" d="M238.4,6.5c-0.1-1.5-0.7-3-1.6-4.2c-1.7-2.2-4.9-2.8-7.5-1.8c-2.6,1-4.2,3.3-4.2,6.2c0,13.2,0,26.4,0,39.6
		c0,13.2,0.1,26.5,0,39.7c0,4.4,4.4,8.2,9.4,6.2c2.9-1.2,4.1-3.6,4.1-6.7c0-23.6,0-47.1,0-70.7C238.4,11.9,238.6,9.2,238.4,6.5z"/>
	<path class="st1" d="M342.7,68c3.6-4.1,7.2-8.2,10.6-12.4c0.9-1.1,1.5-2.7,1.5-4.1c0.1-14.9,0.1-29.8,0.1-44.7
		c0-3.9-2.9-6.7-6.8-6.7c-3.9,0-6.8,2.8-6.8,6.7c0,20.2,0,40.3,0,60.5c0,0.5,0.1,0.9,0.2,1.6C342.1,68.5,342.4,68.3,342.7,68z"/>
	<path class="st1" d="M262.2,34.2c-1.1-3.1-4.3-4.9-7.6-4.3c-3.2,0.6-5.4,3.3-5.5,6.6c0,8.2,0,16.5,0,24.7c0,8.2,0,16.4,0,24.5
		c0,4.1,2.8,6.8,6.7,6.8c3.9,0,6.7-2.8,6.7-6.8c0-16.4,0-32.7,0-49.1C262.6,35.9,262.5,35,262.2,34.2z"/>
	<path class="st1" d="M341.5,77.5c0.2,0.1,0.3,0.3,0.5,0.4c1-0.8,2-1.6,3-2.4c14.9-11.5,29.8-23,44.7-34.5c2.2-1.7,3-4.6,2.1-7.4
		c-0.9-2.7-3.1-4.4-5.8-4.4c-2.5-0.1-4.2,1.3-5.7,3.1c-3.2,3.8-6.5,7.5-9.8,11.2c-9.4,10.9-18.8,21.7-28.2,32.6
		C342,76.5,341.8,77,341.5,77.5z"/>
	<path class="st1" d="M392.7,82.3c-2.1-2.7-4.3-5.4-6.5-8.1c-3.4-4.3-6.9-8.5-10.3-12.8c-1.1-1.3-2.1-1.6-3.2-0.7
		c-2.8,2.1-5.6,4.2-8.5,6.5c0.4,0.5,0.6,0.9,0.9,1.2c4.9,6.2,9.8,12.4,14.8,18.6c1.1,1.4,2.2,2.8,3.4,4c2.4,2.3,6.2,2.2,8.7-0.1
		C394.7,88.3,394.9,85.1,392.7,82.3z"/>
	<path class="st1" d="M256.3,6c-4.3-0.1-7.6,3-7.7,7.1c-0.1,4.3,3,7.5,7.2,7.6c4.2,0.1,7.6-3.1,7.5-7.2C263.3,8.9,260,6.1,256.3,6z"
		/>
	<path class="st1" d="M342.4,83.9c-0.7,0.6-1.1,2-1,2.9c0.4,3.6,3.2,5.9,6.8,5.8c3.4-0.1,6.4-2.6,6.6-6c0.2-4,0.1-8,0.1-12.3
		C350.5,77.6,346.4,80.7,342.4,83.9z"/>
</g>
</svg>
