<svg xmlns="http://www.w3.org/2000/svg" width="47.996" height="47.493" viewBox="0 0 47.996 47.493">
  <g id="home_icon" data-name="home icon" transform="translate(1.864 3.876)">
    <g id="Path_8" data-name="Path 8" transform="translate(-0.367 -2.376)" fill="none">
      <path d="M43.963,19.472,23.789.989a1.943,1.943,0,0,0-2.577,0L1.038,19.472a1.656,1.656,0,0,0,1.288,2.849h2.8v20a1.751,1.751,0,0,0,1.822,1.669H38.055a1.751,1.751,0,0,0,1.822-1.669v-20h2.8A1.656,1.656,0,0,0,43.963,19.472Z" stroke="none"/>
      <path d="M 22.50080108642578 0.5004997253417969 C 22.03440093994141 0.5004997253417969 21.5680046081543 0.6633949279785156 21.21239852905273 0.9891853332519531 L 1.038169860839844 19.47248458862305 C -0.109649658203125 20.52407455444336 0.70281982421875 22.32165336608887 2.325977325439453 22.32165336608887 L 5.124958038330078 22.32165336608887 L 5.124958038330078 42.32368469238281 C 5.124958038330078 43.24539184570312 5.940410614013672 43.99302291870117 6.946468353271484 43.99302291870117 L 38.05452728271484 43.99302291870117 C 39.06119918823242 43.99302291870117 39.87664031982422 43.24539184570312 39.87664031982422 42.32368469238281 L 39.87664031982422 22.32165336608887 L 42.67562866210938 22.32165336608887 C 44.29817962646484 22.32165336608887 45.11124801635742 20.52407455444336 43.96342849731445 19.47248458862305 L 23.78920936584473 0.9891853332519531 C 23.4335994720459 0.6633949279785156 22.96719932556152 0.5004997253417969 22.50080108642578 0.5004997253417969 M 22.50079917907715 -1.499507904052734 C 23.4891300201416 -1.499507904052734 24.42649841308594 -1.139396667480469 25.14023971557617 -0.4855079650878906 L 45.31448745727539 17.99782371520996 C 46.42216873168945 19.01263427734375 46.79198837280273 20.55803298950195 46.25662994384766 21.93489456176758 C 45.69287109375 23.38479423522949 44.28725051879883 24.32165336608887 42.67562866210938 24.32165336608887 L 41.87664031982422 24.32165336608887 L 41.87664031982422 42.32368469238281 C 41.87664031982422 44.34696197509766 40.16204833984375 45.99302291870117 38.05452728271484 45.99302291870117 L 6.946468353271484 45.99302291870117 C 4.839279174804688 45.99302291870117 3.124958038330078 44.34696197509766 3.124958038330078 42.32368469238281 L 3.124958038330078 24.32165336608887 L 2.325977325439453 24.32165336608887 C 0.7142295837402344 24.32165336608887 -0.6914596557617188 23.38486289978027 -1.255180358886719 21.93507385253906 C -1.790542602539062 20.55819320678711 -1.420669555664062 19.01272392272949 -0.3128814697265625 17.99780464172363 L 19.8613395690918 -0.4854774475097656 C 20.5750789642334 -1.139385223388672 21.51244926452637 -1.499507904052734 22.50079917907715 -1.499507904052734 Z" stroke="none" fill="#fff"/>
    </g>
    <path id="Path_9" data-name="Path 9" d="M25.2,66.724V46.441a1.5,1.5,0,0,1,1.467-1.531H38.222a1.5,1.5,0,0,1,1.467,1.531V66.724" transform="translate(-10.311 -24.6)" fill="none" stroke="#fff" stroke-width="2"/>
  </g>
</svg>
