<svg xmlns="http://www.w3.org/2000/svg" width="149.532" height="44" viewBox="0 0 149.532 44">
    <defs>
        <clipPath id="clip-path">
            <path id="Rectangle_1126" data-name="Rectangle 1126" class="cls-1" transform="translate(.007 .037)" d="M0 0h149.532v44H0z"/>
        </clipPath>
        <style>
            .cls-1{fill:#fff}
        </style>
    </defs>
    <g id="mindbill_logo_white" transform="translate(-.007 -.037)" style="clip-path:url(#clip-path)">
        <g id="Group_235" data-name="Group 235" transform="translate(.235 5.551)">
            <g id="Group_234" data-name="Group 234">
                <path id="Path_758" data-name="Path 758" class="cls-1" d="M-143.728-31.761h9.013l3.5 13.5 3.461-13.5h9.013v22.21h-5.628v-16.923l-4.335 16.923h-5.1l-4.335-16.923v16.923h-5.628v-22.21z" transform="translate(143.766 31.761)"/>
                <path id="Path_759" data-name="Path 759" class="cls-1" d="M-88.093-31.761h6.883v22.21h-6.883z" transform="translate(116.958 31.761)"/>
                <path id="Path_760" data-name="Path 760" class="cls-1" d="M-66.748-31.761h6.389l8.366 12.284v-12.284h6.465v22.21h-6.465l-8.29-12.207v12.207h-6.465z" transform="translate(106.679 31.761)"/>
                <path id="Path_761" data-name="Path 761" class="cls-1" d="M-18.264-31.761h10.192a11.664 11.664 0 0 1 4.868.837 7.876 7.876 0 0 1 3.08 2.358 9.524 9.524 0 0 1 1.749 3.575 15.848 15.848 0 0 1 .532 4.3 15.1 15.1 0 0 1-.8 5.514 9.121 9.121 0 0 1-2.242 3.268 7.028 7.028 0 0 1-3.08 1.749 15.35 15.35 0 0 1-4.107.608h-10.192zm6.845 5.02v12.131h1.673A6.464 6.464 0 0 0-6.7-15.1a3.136 3.136 0 0 0 1.4-1.677 10.448 10.448 0 0 0 .532-3.841c0-2.358-.38-3.955-1.141-4.83a4.842 4.842 0 0 0-3.8-1.293z" transform="translate(83.333 31.761)"/>
            </g>
        </g>
        <g id="Group_236" data-name="Group 236" transform="translate(88.463 5.627)">
            <path id="Path_762" data-name="Path 762" class="cls-1" d="M26.406-31.614H39.26a7.028 7.028 0 0 1 4.944 1.6 5.155 5.155 0 0 1 1.711 3.955 5.063 5.063 0 0 1-1.215 3.382 5.627 5.627 0 0 1-2.4 1.483 6.169 6.169 0 0 1 3.537 1.978 5.41 5.41 0 0 1 1.141 3.537 6.139 6.139 0 0 1-.8 3.118 5.753 5.753 0 0 1-2.206 2.168 7.071 7.071 0 0 1-2.624.723c-1.559.19-2.586.3-3.08.3H26.406zm6.921 8.709h2.966a3.389 3.389 0 0 0 2.244-.57 2.061 2.061 0 0 0 .646-1.6 1.951 1.951 0 0 0-.646-1.521 3.291 3.291 0 0 0-2.206-.532h-3.042v4.221zm0 8.709h3.5a3.9 3.9 0 0 0 2.51-.647 2.084 2.084 0 0 0 .723-1.673 1.984 1.984 0 0 0-.723-1.6 4.176 4.176 0 0 0-2.51-.608h-3.5z" transform="translate(-26.406 31.614)"/>
            <path id="Path_763" data-name="Path 763" class="cls-1" d="M73.13-31.614h6.161v4.183H73.13zm0 6.123h6.161V-9.4H73.13z" transform="translate(-48.905 31.614)"/>
            <path id="Path_764" data-name="Path 764" class="cls-1" d="M93.668-31.614h6.2V-9.4h-6.2z" transform="translate(-58.795 31.614)"/>
            <path id="Path_765" data-name="Path 765" class="cls-1" d="M114.133-31.614h6.2V-9.4h-6.2z" transform="translate(-68.649 31.614)"/>
        </g>
        <path id="Rectangle_1121" data-name="Rectangle 1121" class="cls-1" transform="translate(7.727 38.561)" d="M0 0h123.558v.761H0z"/>
        <path id="Rectangle_1122" data-name="Rectangle 1122" class="cls-1" transform="translate(.007 33.389)" d="M0 0h10.648v10.648H0z"/>
        <path id="Rectangle_1123" data-name="Rectangle 1123" class="cls-1" transform="translate(129.497 33.389)" d="M0 0h10.648v10.648H0z"/>
        <path id="Rectangle_1124" data-name="Rectangle 1124" class="cls-1" transform="translate(87.855 33.389)" d="M0 0h10.648v10.648H0z"/>
        <path id="Rectangle_1125" data-name="Rectangle 1125" class="cls-1" transform="translate(43.931 33.389)" d="M0 0h10.648v10.648H0z"/>
        <g id="Group_237" data-name="Group 237" transform="translate(142.237 -.001)">
            <path id="Path_766" data-name="Path 766" class="cls-1" d="M137.425-38.819a3.469 3.469 0 0 1-.494 1.825 3.444 3.444 0 0 1-1.331 1.331 3.469 3.469 0 0 1-1.825.494 3.469 3.469 0 0 1-1.825-.494 3.444 3.444 0 0 1-1.331-1.331 3.469 3.469 0 0 1-.494-1.825 3.469 3.469 0 0 1 .494-1.825 3.444 3.444 0 0 1 1.331-1.331 3.469 3.469 0 0 1 1.825-.494 3.469 3.469 0 0 1 1.825.494 3.444 3.444 0 0 1 1.331 1.331 3.469 3.469 0 0 1 .494 1.825zm-.723 0a2.9 2.9 0 0 0-.875-2.092 2.842 2.842 0 0 0-2.092-.875 2.9 2.9 0 0 0-2.092.875 2.842 2.842 0 0 0-.875 2.092 2.9 2.9 0 0 0 .875 2.092 2.842 2.842 0 0 0 2.092.875 2.9 2.9 0 0 0 2.092-.875 2.7 2.7 0 0 0 .873-2.092zm-4.6-1.94h1.749a1.616 1.616 0 0 1 1.065.3.982.982 0 0 1 .342.8.916.916 0 0 1-.266.685 1.329 1.329 0 0 1-.8.418 1.368 1.368 0 0 1 .342.19 1.66 1.66 0 0 1 .3.38s.228.38.646 1.141h-1.141a6.83 6.83 0 0 0-.761-1.331.519.519 0 0 0-.38-.228h-.114v1.521h-.984zm.989 1.673h.418a.9.9 0 0 0 .608-.152.4.4 0 0 0 .19-.342.371.371 0 0 0-.152-.342 1.026 1.026 0 0 0-.57-.152h-.456v.989z" transform="translate(-130.123 42.47)"/>
        </g>
    </g>
</svg>
